<svg xmlns="http://www.w3.org/2000/svg" width="24" height="24" viewBox="0 0 24 24">
    <path fill="white" d="M11.83 9L15 12.17V12a3 3 0 0 0-3-3h-.17m-4.3.8l1.55 1.55c-.05.21-.08.42-.08.65a3 3 0 0 0 3 3c.22 0 .44-.03.65-.08l1.55 1.55c-.67.33-1.41.53-2.2.53a5 5 0 0 1-5-5c0-.79.2-1.53.53-2.2M2 4.27l2.28 2.28l.46.46C3.08 8.3 1.78 10 1 12c1.73 4.39 6 7.5 11 7.5c1.55 0 3.03-.3 4.38-.84l.42.42L19.73 22L21 20.73L3.27 3L2 4.27M12 7a5 5 0 0 1 5 5c0 .64-.13 1.25-.35 1.82l3.43 3.43c1.2-1.58 2.15-3.34 2.92-5.25C21.27 7.61 17 4.5 12 4.5c-1.54 0-3.01.3-4.36.82l2.54 2.54c.57-.22 1.18-.36 1.82-.36Z"/>
</svg>